{
    "asset" : {
        "generator" : "Khronos glTF Blender I/O v1.5.17",
        "version" : "2.0"
    },
    "scene" : 0,
    "scenes" : [
        {
            "name" : "Scene",
            "nodes" : [
                1,
                2,
                3,
                4,
                5,
                6,
                7,
                8,
                9,
                10,
                11
            ]
        }
    ],
    "nodes" : [
        {
            "camera" : 0,
            "name" : "Camera_Orientation",
            "rotation" : [
                -0.7071067690849304,
                0,
                0,
                0.7071067690849304
            ]
        },
        {
            "children" : [
                0
            ],
            "name" : "Camera",
            "rotation" : [
                0.48811075091362,
                -0.31922051310539246,
                0.1977681666612625,
                0.7878668308258057
            ],
            "translation" : [
                -5.223097801208496,
                4.616872787475586,
                5.182372093200684
            ]
        },
        {
            "mesh" : 0,
            "name" : "Plane",
            "translation" : [
                0.5,
                1,
                -1.5
            ]
        },
        {
            "mesh" : 1,
            "name" : "Plane.001",
            "rotation" : [
                0,
                -0.7071068286895752,
                -0.7071068286895752,
                5.338508302088485e-08
            ],
            "translation" : [
                0.5,
                1,
                -1.5
            ]
        },
        {
            "mesh" : 2,
            "name" : "Plane.002",
            "translation" : [
                -0.5,
                0.0001691579818725586,
                0.4999999403953552
            ]
        },
        {
            "mesh" : 3,
            "name" : "Cube",
            "scale" : [
                0.5,
                0.5,
                0.5
            ],
            "translation" : [
                -0.5,
                -0.0002537965774536133,
                0.4999999403953552
            ]
        },
        {
            "mesh" : 3,
            "name" : "Cube.001",
            "scale" : [
                0.5,
                0.5,
                0.5
            ],
            "translation" : [
                -2.5,
                -0.0002537965774536133,
                -2.5
            ]
        },
        {
            "mesh" : 4,
            "name" : "Plane.003",
            "rotation" : [
                0,
                -0.7071068286895752,
                -0.7071068286895752,
                5.338508302088485e-08
            ],
            "translation" : [
                1,
                1,
                1
            ]
        },
        {
            "mesh" : 4,
            "name" : "Plane.004",
            "rotation" : [
                0.5,
                -0.5,
                -0.5,
                -0.5
            ],
            "translation" : [
                1.5,
                1,
                0.5
            ]
        },
        {
            "mesh" : 4,
            "name" : "Plane.005",
            "rotation" : [
                0.5,
                -0.5,
                -0.5,
                -0.5
            ],
            "translation" : [
                1.5,
                1,
                0.5
            ]
        },
        {
            "mesh" : 4,
            "name" : "Plane.006",
            "rotation" : [
                0.7071068286895752,
                0,
                0,
                -0.7071068286895752
            ],
            "translation" : [
                2,
                1,
                1
            ]
        },
        {
            "mesh" : 4,
            "name" : "Plane.007",
            "rotation" : [
                0.4999999403953552,
                0.5000000596046448,
                0.5000001192092896,
                -0.49999991059303284
            ],
            "translation" : [
                1.5,
                1,
                1.5
            ]
        }
    ],
    "cameras" : [
        {
            "name" : "Camera",
            "perspective" : {
                "aspectRatio" : 1.7777777777777777,
                "yfov" : 0.39959648408210363,
                "zfar" : 100,
                "znear" : 0.10000000149011612
            },
            "type" : "perspective"
        }
    ],
    "materials" : [
        {
            "doubleSided" : true,
            "emissiveFactor" : [
                1,
                1,
                1
            ],
            "emissiveTexture" : {
                "index" : 0
            },
            "name" : "Material",
            "pbrMetallicRoughness" : {}
        },
        {
            "alphaCutoff" : 0.5,
            "alphaMode" : "MASK",
            "doubleSided" : true,
            "emissiveFactor" : [
                1,
                1,
                1
            ],
            "name" : "Material.001",
            "pbrMetallicRoughness" : {
                "baseColorTexture" : {
                    "index" : 1
                },
                "metallicFactor" : 0,
                "roughnessFactor" : 0.5
            }
        }
    ],
    "meshes" : [
        {
            "name" : "Plane",
            "primitives" : [
                {
                    "attributes" : {
                        "POSITION" : 0,
                        "NORMAL" : 1,
                        "TEXCOORD_0" : 2
                    },
                    "indices" : 3,
                    "material" : 0
                }
            ]
        },
        {
            "name" : "Plane.001",
            "primitives" : [
                {
                    "attributes" : {
                        "POSITION" : 4,
                        "NORMAL" : 5,
                        "TEXCOORD_0" : 6
                    },
                    "indices" : 7,
                    "material" : 1
                }
            ]
        },
        {
            "name" : "Plane.002",
            "primitives" : [
                {
                    "attributes" : {
                        "POSITION" : 8,
                        "NORMAL" : 9,
                        "TEXCOORD_0" : 10
                    },
                    "indices" : 11,
                    "material" : 0
                }
            ]
        },
        {
            "name" : "Cube.001",
            "primitives" : [
                {
                    "attributes" : {
                        "POSITION" : 12,
                        "NORMAL" : 13,
                        "TEXCOORD_0" : 14
                    },
                    "indices" : 15,
                    "material" : 0
                }
            ]
        },
        {
            "name" : "Plane.003",
            "primitives" : [
                {
                    "attributes" : {
                        "POSITION" : 16,
                        "NORMAL" : 17,
                        "TEXCOORD_0" : 18
                    },
                    "indices" : 19,
                    "material" : 1
                }
            ]
        }
    ],
    "textures" : [
        {
            "sampler" : 0,
            "source" : 0
        },
        {
            "sampler" : 0,
            "source" : 1
        }
    ],
    "images" : [
        {
            "bufferView" : 4,
            "mimeType" : "image/png",
            "name" : "colored_packed"
        },
        {
            "bufferView" : 9,
            "mimeType" : "image/png",
            "name" : "colored_transparent_packed"
        }
    ],
    "accessors" : [
        {
            "bufferView" : 0,
            "componentType" : 5126,
            "count" : 10,
            "max" : [
                1,
                0,
                0
            ],
            "min" : [
                -1,
                -2.1855694143368964e-08,
                -1
            ],
            "type" : "VEC3"
        },
        {
            "bufferView" : 1,
            "componentType" : 5126,
            "count" : 10,
            "type" : "VEC3"
        },
        {
            "bufferView" : 2,
            "componentType" : 5126,
            "count" : 10,
            "type" : "VEC2"
        },
        {
            "bufferView" : 3,
            "componentType" : 5123,
            "count" : 18,
            "type" : "SCALAR"
        },
        {
            "bufferView" : 5,
            "componentType" : 5126,
            "count" : 12,
            "max" : [
                1,
                0,
                0
            ],
            "min" : [
                -1,
                -2.1855694143368964e-08,
                -1
            ],
            "type" : "VEC3"
        },
        {
            "bufferView" : 6,
            "componentType" : 5126,
            "count" : 12,
            "type" : "VEC3"
        },
        {
            "bufferView" : 7,
            "componentType" : 5126,
            "count" : 12,
            "type" : "VEC2"
        },
        {
            "bufferView" : 8,
            "componentType" : 5123,
            "count" : 18,
            "type" : "SCALAR"
        },
        {
            "bufferView" : 10,
            "componentType" : 5126,
            "count" : 185,
            "max" : [
                3.010000228881836,
                1,
                2.0014286041259766
            ],
            "min" : [
                -2,
                -0.00042295458843000233,
                -3
            ],
            "type" : "VEC3"
        },
        {
            "bufferView" : 11,
            "componentType" : 5126,
            "count" : 185,
            "type" : "VEC3"
        },
        {
            "bufferView" : 12,
            "componentType" : 5126,
            "count" : 185,
            "type" : "VEC2"
        },
        {
            "bufferView" : 13,
            "componentType" : 5123,
            "count" : 300,
            "type" : "SCALAR"
        },
        {
            "bufferView" : 14,
            "componentType" : 5126,
            "count" : 24,
            "max" : [
                1,
                1,
                1
            ],
            "min" : [
                0,
                0,
                0
            ],
            "type" : "VEC3"
        },
        {
            "bufferView" : 15,
            "componentType" : 5126,
            "count" : 24,
            "type" : "VEC3"
        },
        {
            "bufferView" : 16,
            "componentType" : 5126,
            "count" : 24,
            "type" : "VEC2"
        },
        {
            "bufferView" : 17,
            "componentType" : 5123,
            "count" : 36,
            "type" : "SCALAR"
        },
        {
            "bufferView" : 18,
            "componentType" : 5126,
            "count" : 4,
            "max" : [
                -0.0020041167736053467,
                1.5129842267924687e-07,
                6.613463845572126e-15
            ],
            "min" : [
                -0.5020041465759277,
                1.4037055962035083e-07,
                -1
            ],
            "type" : "VEC3"
        },
        {
            "bufferView" : 19,
            "componentType" : 5126,
            "count" : 4,
            "type" : "VEC3"
        },
        {
            "bufferView" : 20,
            "componentType" : 5126,
            "count" : 4,
            "type" : "VEC2"
        },
        {
            "bufferView" : 21,
            "componentType" : 5123,
            "count" : 6,
            "type" : "SCALAR"
        }
    ],
    "bufferViews" : [
        {
            "buffer" : 0,
            "byteLength" : 120,
            "byteOffset" : 0
        },
        {
            "buffer" : 0,
            "byteLength" : 120,
            "byteOffset" : 120
        },
        {
            "buffer" : 0,
            "byteLength" : 80,
            "byteOffset" : 240
        },
        {
            "buffer" : 0,
            "byteLength" : 36,
            "byteOffset" : 320
        },
        {
            "buffer" : 0,
            "byteLength" : 23076,
            "byteOffset" : 356
        },
        {
            "buffer" : 0,
            "byteLength" : 144,
            "byteOffset" : 23432
        },
        {
            "buffer" : 0,
            "byteLength" : 144,
            "byteOffset" : 23576
        },
        {
            "buffer" : 0,
            "byteLength" : 96,
            "byteOffset" : 23720
        },
        {
            "buffer" : 0,
            "byteLength" : 36,
            "byteOffset" : 23816
        },
        {
            "buffer" : 0,
            "byteLength" : 22927,
            "byteOffset" : 23852
        },
        {
            "buffer" : 0,
            "byteLength" : 2220,
            "byteOffset" : 46780
        },
        {
            "buffer" : 0,
            "byteLength" : 2220,
            "byteOffset" : 49000
        },
        {
            "buffer" : 0,
            "byteLength" : 1480,
            "byteOffset" : 51220
        },
        {
            "buffer" : 0,
            "byteLength" : 600,
            "byteOffset" : 52700
        },
        {
            "buffer" : 0,
            "byteLength" : 288,
            "byteOffset" : 53300
        },
        {
            "buffer" : 0,
            "byteLength" : 288,
            "byteOffset" : 53588
        },
        {
            "buffer" : 0,
            "byteLength" : 192,
            "byteOffset" : 53876
        },
        {
            "buffer" : 0,
            "byteLength" : 72,
            "byteOffset" : 54068
        },
        {
            "buffer" : 0,
            "byteLength" : 48,
            "byteOffset" : 54140
        },
        {
            "buffer" : 0,
            "byteLength" : 48,
            "byteOffset" : 54188
        },
        {
            "buffer" : 0,
            "byteLength" : 32,
            "byteOffset" : 54236
        },
        {
            "buffer" : 0,
            "byteLength" : 12,
            "byteOffset" : 54268
        }
    ],
    "samplers" : [
        {
            "magFilter" : 9728,
            "minFilter" : 9984
        }
    ],
    "buffers" : [
        {
            "byteLength" : 54280,
            "uri" : "data:application/octet-stream;base64,"
        }
    ]
}
