{
    "asset" : {
        "generator" : "Khronos glTF Blender I/O v1.5.17",
        "version" : "2.0"
    },
    "scene" : 0,
    "scenes" : [
        {
            "name" : "Scene",
            "nodes" : [
                1,
                3,
                5
            ]
        }
    ],
    "nodes" : [
        {
            "camera" : 0,
            "name" : "Camera_Orientation",
            "rotation" : [
                -0.7071067690849304,
                0,
                0,
                0.7071067690849304
            ]
        },
        {
            "children" : [
                0
            ],
            "name" : "Camera",
            "rotation" : [
                0.7071068286895752,
                0,
                0,
                0.7071068286895752
            ],
            "translation" : [
                0,
                0,
                8
            ]
        },
        {
            "mesh" : 0,
            "name" : "Plane.001",
            "rotation" : [
                0.7071068286895752,
                0,
                0,
                0.7071068286895752
            ],
            "scale" : [
                1.287671446800232,
                1.287671446800232,
                1.287671446800232
            ],
            "translation" : [
                0,
                -0.03212845325469971,
                -0.0170937180519104
            ]
        },
        {
            "children" : [
                2
            ],
            "name" : "wave",
            "translation" : [
                0,
                0.30522072315216064,
                0
            ]
        },
        {
            "mesh" : 0,
            "name" : "Plane",
            "rotation" : [
                0.7071068286895752,
                0,
                0,
                0.7071068286895752
            ],
            "scale" : [
                1.288316011428833,
                1.288316011428833,
                1.288316011428833
            ],
            "translation" : [
                0,
                0.03909170627593994,
                -0.0170937180519104
            ]
        },
        {
            "children" : [
                4
            ],
            "name" : "typewriter",
            "translation" : [
                0.00803212821483612,
                -1.4085177183151245,
                0
            ]
        }
    ],
    "cameras" : [
        {
            "name" : "Camera",
            "perspective" : {
                "aspectRatio" : 1.7777777777777777,
                "yfov" : 0.39959648408210363,
                "zfar" : 100,
                "znear" : 0.10000000149011612
            },
            "type" : "perspective"
        }
    ],
    "materials" : [
        {
            "doubleSided" : true,
            "name" : "Material.001",
            "pbrMetallicRoughness" : {
                "baseColorTexture" : {
                    "index" : 0
                },
                "metallicFactor" : 0,
                "roughnessFactor" : 0.5
            }
        }
    ],
    "meshes" : [
        {
            "name" : "Plane",
            "primitives" : [
                {
                    "attributes" : {
                        "POSITION" : 0,
                        "NORMAL" : 1,
                        "TEXCOORD_0" : 2
                    },
                    "indices" : 3,
                    "material" : 0
                }
            ]
        }
    ],
    "textures" : [
        {
            "sampler" : 0,
            "source" : 0
        }
    ],
    "images" : [
        {
            "bufferView" : 4,
            "mimeType" : "image/png",
            "name" : "colored_packed"
        }
    ],
    "accessors" : [
        {
            "bufferView" : 0,
            "componentType" : 5126,
            "count" : 259,
            "max" : [
                1,
                0,
                -0.3239469826221466
            ],
            "min" : [
                -1,
                -2.290245149083603e-08,
                -1
            ],
            "type" : "VEC3"
        },
        {
            "bufferView" : 1,
            "componentType" : 5126,
            "count" : 259,
            "type" : "VEC3"
        },
        {
            "bufferView" : 2,
            "componentType" : 5126,
            "count" : 259,
            "type" : "VEC2"
        },
        {
            "bufferView" : 3,
            "componentType" : 5123,
            "count" : 450,
            "type" : "SCALAR"
        }
    ],
    "bufferViews" : [
        {
            "buffer" : 0,
            "byteLength" : 3108,
            "byteOffset" : 0
        },
        {
            "buffer" : 0,
            "byteLength" : 3108,
            "byteOffset" : 3108
        },
        {
            "buffer" : 0,
            "byteLength" : 2072,
            "byteOffset" : 6216
        },
        {
            "buffer" : 0,
            "byteLength" : 900,
            "byteOffset" : 8288
        },
        {
            "buffer" : 0,
            "byteLength" : 23076,
            "byteOffset" : 9188
        }
    ],
    "samplers" : [
        {
            "magFilter" : 9728,
            "minFilter" : 9984
        }
    ],
    "buffers" : [
        {
            "byteLength" : 32264,
            "uri" : "data:application/octet-stream;base64,"
        }
    ]
}
